<svg width="220" height="231" viewBox="0 0 220 231" fill="none" xmlns="http://www.w3.org/2000/svg">
<path d="M109.8 0C49.3 0 0 51.7 0 115.1C0 178.5 49.3 230.2 109.8 230.2C170.4 230.2 219.6 178.5 219.6 115.1C219.6 51.7 170.4 0 109.8 0ZM109.8 11.6C164 11.6 208 58 208 115.1C208 116.1 208 117.1 208 118.1C206.4 95.1 187 80.9 158 80.9C142.5 80.9 127.7 86.8 120.4 96.2V51.6H119H105.9H62C51.6 51.6 46.2 57.2 46.2 68V98H13C20.7 49.1 61.2 11.6 109.8 11.6ZM193.6 121.3C193.6 138.3 180 149.8 159.4 149.8H156.6C134.8 149.8 120.4 138.3 120.4 121.3C120.4 104.3 134.8 92.8 156.6 92.8H159.4C179.9 92.8 193.6 104.2 193.6 121.3ZM109.8 218.7C55.6 218.7 11.6 172.3 11.6 115.2C11.6 113.5 11.6 111.7 11.7 110H46.2V160H60.6V110H88.8V98.1H60.6V70C60.6 65.4 62.5 63.7 67.1 63.7H106V160H120.4V147.3C129.4 157.7 144.7 161.5 158 161.5C183.9 161.5 201.6 151.1 206.6 132.8C198.6 181.5 158.3 218.7 109.8 218.7Z" fill="#1C1C1B"/>
</svg>
