<svg width="221" height="231" viewBox="0 0 221 231" fill="none" xmlns="http://www.w3.org/2000/svg">
<g clip-path="url(#clip0_218_2)">
<path d="M110.6 0.199951C50 0.199951 0.700012 51.9 0.700012 115.4C0.700012 178.9 50 230.5 110.6 230.5C171.2 230.5 220.4 178.8 220.4 115.4C220.4 52 171.1 0.199951 110.6 0.199951ZM110.6 218.9C56.4 218.9 12.4 172.5 12.4 115.4C12.4 58.3 56.5 11.9 110.6 11.9C164.8 11.9 208.8 58.3 208.8 115.4C208.8 172.5 164.7 218.9 110.6 218.9Z" fill="#1C1C1B"/>
<path d="M140.1 39.1H81C56.7 39.1 37 58.8 37 83.1V142.1C37 166.4 56.7 186.1 81 186.1H140C164.3 186.1 184 166.4 184 142.1V83.1C184.1 58.8 164.4 39.1 140.1 39.1ZM172.5 142.1C172.5 160 158 174.5 140.1 174.5H81C63.1 174.5 48.6 160 48.6 142.1V83.1C48.6 65.2 63.1 50.7 81 50.7H140C157.9 50.7 172.4 65.2 172.4 83.1V142.1H172.5Z" fill="#1C1C1B"/>
<path d="M110.6 81.6C89.3 81.6 71.9 99 71.9 120.3C71.9 141.6 89.3 159 110.6 159C131.9 159 149.3 141.6 149.3 120.3C149.3 99 131.9 81.6 110.6 81.6ZM110.6 147.4C95.7 147.4 83.5 135.2 83.5 120.3C83.5 105.4 95.7 93.2 110.6 93.2C125.5 93.2 137.7 105.4 137.7 120.3C137.7 135.2 125.5 147.4 110.6 147.4Z" fill="#1C1C1B"/>
<path d="M146.5 81.6999C151.857 81.6999 156.2 77.3571 156.2 71.9999C156.2 66.6428 151.857 62.2999 146.5 62.2999C141.143 62.2999 136.8 66.6428 136.8 71.9999C136.8 77.3571 141.143 81.6999 146.5 81.6999Z" fill="#1C1C1B"/>
</g>
<defs>
<clipPath id="clip0_218_2">
<rect width="220.3" height="230.2" fill="white"/>
</clipPath>
</defs>
</svg>
